<?xml version="1.0" standalone="no"?><!DOCTYPE svg PUBLIC "-//W3C//DTD SVG 1.1//EN" "http://www.w3.org/Graphics/SVG/1.1/DTD/svg11.dtd"><svg width="200" height="200" viewBox="0 0 200 200" version="1.1" xmlns="http://www.w3.org/2000/svg" xmlns:xlink="http://www.w3.org/1999/xlink"><defs><style type="text/css"><![CDATA[
@font-face { font-family: ifont; src: url(http://at.alicdn.com/t/font_1442373896_4754455.eot?#iefix) format(embedded-opentype), url(http://at.alicdn.com/t/font_1442373896_4754455.woff) format(woff), url(http://at.alicdn.com/t/font_1442373896_4754455.ttf) format(truetype), url(http://at.alicdn.com/t/font_1442373896_4754455.svg#ifont) format(svg); }

]]></style></defs><g class="transform-group"><g transform="scale(0.1953125, 0.1953125)"><path d="M757.116343 440.1536 457.245257 655.263086c0 0 120.347429 17.856 301.853257 15.786057l-8.259657-35.5712 258.618514-224.067657c4.754286-4.1216 6.577371-10.680686 4.629943-16.661943-1.9456-5.981257-7.277714-10.225371-13.540571-10.750171L659.604114 354.724571 526.4 39.506286c-2.437486-5.787429-8.120686-9.557943-14.4-9.557943s-11.960686 3.770514-14.398171 9.557943L364.397714 354.724571 23.451429 383.996343c-6.261029 0.526629-11.593143 4.768914-13.538743 10.750171-1.947429 5.981257-0.122514 12.540343 4.629943 16.661943l258.620343 224.067657L195.642514 968.813714c-1.4208 6.101943 0.9472 12.485486 6.032457 16.2048 5.103543 3.646171 11.8912 3.927771 17.2928 0.700343L512 809.003886l293.0304 176.7168c2.5088 1.545143 5.297371 2.247314 8.085943 2.247314 3.243886 0 6.473143-0.981943 9.206857-2.945829 5.087086-3.719314 7.455086-10.102857 6.034286-16.2048l-61.295543-263.6032c26.289371-13.2224 55.2448-35.602286 55.2448-35.602286s-114.753829 56.053029-526.729143 28.677486l298.574629-216.407771c0 0-11.733943-18.256457-385.914514-31.286857C183.191771 449.713371 513.296457 387.995429 757.116343 440.1536z" fill="#f4c600"></path></g></g></svg>