<?xml version="1.0" standalone="no"?><!DOCTYPE svg PUBLIC "-//W3C//DTD SVG 1.1//EN" "http://www.w3.org/Graphics/SVG/1.1/DTD/svg11.dtd"><svg width="200" height="200" viewBox="0 0 200 200" version="1.1" xmlns="http://www.w3.org/2000/svg" xmlns:xlink="http://www.w3.org/1999/xlink"><defs><style type="text/css"><![CDATA[
@font-face { font-family: ifont; src: url(http://at.alicdn.com/t/font_1442373896_4754455.eot?#iefix) format(embedded-opentype), url(http://at.alicdn.com/t/font_1442373896_4754455.woff) format(woff), url(http://at.alicdn.com/t/font_1442373896_4754455.ttf) format(truetype), url(http://at.alicdn.com/t/font_1442373896_4754455.svg#ifont) format(svg); }

]]></style></defs><g class="transform-group"><g transform="scale(0.1953125, 0.1953125)"><path d="M512.63488 953.372672c-0.016384 0-0.049152 0-0.08192 0l-0.106496 0c-3.342336 0-6.53312-0.806912-9.355264-2.260992C349.270016 884.146176 48.263168 627.195904 40.800256 391.151616c-3.837952-121.106432 40.439808-193.060864 78.258176-232.095744 45.58848-47.054848 109.051904-74.043392 174.116864-74.043392 16.494592 0 32.833536 1.7408 48.553984 5.177344 89.235456 19.484672 144.355328 85.663744 170.770432 126.644224 26.411008-40.98048 81.53088-107.159552 170.766336-126.644224 15.724544-3.432448 32.059392-5.177344 48.553984-5.177344 65.060864 0 128.524288 26.988544 174.116864 74.047488 37.818368 39.03488 82.100224 110.989312 78.262272 232.091648-7.458816 235.790336-307.818496 492.433408-461.795328 559.742976C519.507968 952.471552 516.17792 953.372672 512.63488 953.372672zM293.175296 125.97248c-54.038528 0-106.778624 22.44608-144.699392 61.58336C102.137856 235.384832 79.060992 305.33632 81.73568 389.853184c6.5536 207.081472 278.102016 450.449408 430.768128 520.597504 152.662016-70.148096 424.210432-313.511936 430.768128-520.597504 2.670592-84.512768-20.406272-154.464256-66.74432-202.293248-37.924864-39.141376-90.66496-61.587456-144.699392-61.587456-13.561856 0-26.955776 1.425408-39.817216 4.231168-105.054208 22.941696-154.730496 123.67872-160.333824 135.729152-0.507904 1.359872-1.16736 2.674688-1.974272 3.915776-3.776512 5.81632-10.211328 9.388032-17.149952 9.388032-6.909952 0-13.406208-3.485696-17.190912-9.265152-0.856064-1.306624-1.552384-2.695168-2.084864-4.128768-5.808128-12.468224-55.496704-112.750592-160.284672-135.634944C320.131072 127.397888 306.733056 125.97248 293.175296 125.97248z" fill="#a9b7b7"></path></g></g></svg>