<?xml version="1.0" standalone="no"?><!DOCTYPE svg PUBLIC "-//W3C//DTD SVG 1.1//EN" "http://www.w3.org/Graphics/SVG/1.1/DTD/svg11.dtd"><svg width="200" height="200" viewBox="0 0 200 200" version="1.1" xmlns="http://www.w3.org/2000/svg" xmlns:xlink="http://www.w3.org/1999/xlink"><defs><style type="text/css"><![CDATA[
@font-face { font-family: ifont; src: url(http://at.alicdn.com/t/font_1442373896_4754455.eot?#iefix) format(embedded-opentype), url(http://at.alicdn.com/t/font_1442373896_4754455.woff) format(woff), url(http://at.alicdn.com/t/font_1442373896_4754455.ttf) format(truetype), url(http://at.alicdn.com/t/font_1442373896_4754455.svg#ifont) format(svg); }

]]></style></defs><g class="transform-group"><g transform="scale(0.1953125, 0.1953125)"><path d="M731.31 498.293c17.134-82.241 23.986-137.069 27.413-164.483-3.427-30.841-20.561-47.974-51.401-51.401-34.268 0-54.828 13.707-58.254 44.547l-3.427 23.986c-41.12-54.828-92.522-82.241-154.202-82.241-140.495 6.854-239.871 119.935-239.871 301.551 3.427 130.215 61.681 198.749 171.335 205.603 54.828 3.427 99.375-17.134 140.495-58.254h3.427c3.427 37.694 27.413 58.254 71.961 58.254 191.897-13.707 318.685-143.922 308.405-311.831-6.854-71.961-30.841-140.495-68.534-198.749 0 0 0-3.427-3.427-3.427-78.815-116.509-212.457-191.897-363.232-191.897-239.871 0-435.194 198.749-435.194 442.047 0 243.297 198.749 442.047 442.047 442.047 123.362 0 236.444-51.401 315.258-133.643-6.854-17.134-20.561-23.986-37.694-27.413-10.279 0-27.413 6.854-47.974 20.561-65.108 37.694-137.069 58.254-222.737 58.254-226.163-17.134-352.953-133.643-352.953-352.953 3.427-215.883 130.215-335.819 342.671-356.38 171.335-10.279 322.112 89.094 325.539 298.125-6.854 116.509-41.12 178.19-106.228 191.897-20.561 0-27.413-6.854-23.986-23.986 0-17.134 6.854-58.254 20.561-130.215zM481.159 638.788c-61.681 0-92.522-30.841-92.522-95.948 6.854-78.815 47.974-123.362 119.935-130.215 61.681 3.427 92.522 34.268 95.948 95.948-3.427 82.241-47.974 126.788-123.362 130.215z" fill="#a9b7b7"></path></g></g></svg>