<?xml version="1.0" standalone="no"?><!DOCTYPE svg PUBLIC "-//W3C//DTD SVG 1.1//EN" "http://www.w3.org/Graphics/SVG/1.1/DTD/svg11.dtd"><svg width="200" height="200" viewBox="0 0 200 200" version="1.1" xmlns="http://www.w3.org/2000/svg" xmlns:xlink="http://www.w3.org/1999/xlink"><defs><style type="text/css"><![CDATA[
@font-face { font-family: ifont; src: url(http://at.alicdn.com/t/font_1442373896_4754455.eot?#iefix) format(embedded-opentype), url(http://at.alicdn.com/t/font_1442373896_4754455.woff) format(woff), url(http://at.alicdn.com/t/font_1442373896_4754455.ttf) format(truetype), url(http://at.alicdn.com/t/font_1442373896_4754455.svg#ifont) format(svg); }

]]></style></defs><g class="transform-group"><g transform="scale(0.1953125, 0.1953125)"><path d="M511.999488 51.16531c62.231343 0 122.574686 12.17632 179.353854 36.192294 54.867632 23.206538 104.154151 56.440453 146.490376 98.776677 42.337247 42.337247 75.571163 91.623767 98.776677 146.490376 24.015973 56.778144 36.192294 117.121488 36.192294 179.353854s-12.17632 122.57571-36.192294 179.353854c-23.206538 54.866608-56.43943 104.153128-98.776677 146.490376-42.336224 42.337247-91.622744 75.571163-146.490376 98.776677-56.778144 24.015973-117.121488 36.192294-179.353854 36.192294s-122.57571-12.17632-179.353854-36.192294c-54.867632-23.206538-104.154151-56.43943-146.490376-98.776677-42.337247-42.337247-75.571163-91.623767-98.777701-146.490376C63.362608 634.55422 51.186288 574.210877 51.186288 511.978511s12.17632-122.57571 36.192294-179.353854c23.206538-54.867632 56.440453-104.153128 98.776677-146.490376 42.337247-42.337247 91.623767-75.570139 146.490376-98.776677C389.423779 63.34163 449.767122 51.16531 511.999488 51.16531M511.999488 0c-282.757922 0-511.978511 229.220588-511.978511 511.978511 0 282.757922 229.220588 511.979534 511.978511 511.979534s511.978511-229.221612 511.978511-511.979534C1023.977999 229.220588 794.75741 0 511.999488 0L511.999488 0zM411.215 377.664l268.409 134.164-268.409 134.164z" fill="#a9b7b7"></path></g></g></svg>