<?xml version="1.0" standalone="no"?><!DOCTYPE svg PUBLIC "-//W3C//DTD SVG 1.1//EN" "http://www.w3.org/Graphics/SVG/1.1/DTD/svg11.dtd"><svg width="200" height="200" viewBox="0 0 200 200" version="1.1" xmlns="http://www.w3.org/2000/svg" xmlns:xlink="http://www.w3.org/1999/xlink"><defs><style type="text/css"><![CDATA[
@font-face { font-family: ifont; src: url(http://at.alicdn.com/t/font_1442373896_4754455.eot?#iefix) format(embedded-opentype), url(http://at.alicdn.com/t/font_1442373896_4754455.woff) format(woff), url(http://at.alicdn.com/t/font_1442373896_4754455.ttf) format(truetype), url(http://at.alicdn.com/t/font_1442373896_4754455.svg#ifont) format(svg); }

]]></style></defs><g class="transform-group"><g transform="scale(0.1953125, 0.1953125)"><path d="M209.245651 172.95819l-91.175559 0c-36.470633 0-54.705949 18.235316-54.705949 54.705949l0 674.701592c0 32.819476 18.235316 51.054793 54.705949 54.705949l784.112468 0c36.470633-3.651157 54.705949-21.88545 54.705949-54.705949L956.88851 227.66414c0-34.645055-18.235316-52.880371-54.705949-54.705949l-72.940243 0 0 54.705949c0 52.880371-31.003108 82.057901-91.175559 91.175559l-18.235316 0c-54.705949-3.651157-85.709057-34.645055-91.175559-91.175559l0-54.705949L409.833109 172.95819l0 54.705949c-3.651157 54.705949-34.654264 85.699848-91.175559 91.175559l-18.235316 0c-54.705949-7.29208-83.892689-38.296211-91.175559-91.175559L209.246675 172.95819zM136.305409 537.662473 136.305409 428.250574l747.642858 0 0 109.410875L136.305409 537.66145zM136.305409 829.424466l0-91.175559 145.881508 0 0 91.175559L136.305409 829.424466zM738.065735 592.367399l145.881508 0 0 91.175559L738.065735 683.542958 738.065735 592.367399zM336.891843 592.367399l145.881508 0 0 91.175559L336.891843 683.542958 336.891843 592.367399zM336.891843 738.248907l145.881508 0 0 91.175559L336.891843 829.424466 336.891843 738.248907zM537.479301 829.424466l0-91.175559 145.881508 0 0 91.175559L537.479301 829.424466zM738.065735 738.248907l145.881508 0 0 91.175559L738.065735 829.424466 738.065735 738.248907zM537.479301 592.367399l145.881508 0 0 91.175559L537.479301 683.542958 537.479301 592.367399zM243.881496 123.719766l1.834788 100.293217c0 16.409738 5.466502 31.003108 18.235316 41.946344 12.750395 10.934027 27.352975 16.409738 45.588291 16.409738s32.819476-5.475711 45.588291-16.409738c12.750395-10.943236 18.235316-25.536606 18.235316-41.946344l0-100.293217c0-14.58416-7.30129-29.178553-20.070104-41.937135-10.934027-12.767791-25.518187-18.235316-43.753503-18.235316s-34.654264 5.466502-47.422056 18.235316C251.182786 94.541213 243.881496 109.135606 243.881496 123.719766zM772.70158 81.782631c-10.934027-12.767791-25.518187-18.235316-43.753503-18.235316s-34.654264 5.466502-47.422056 18.235316c-10.934027 12.759605-18.235316 27.352975-18.235316 41.937135l1.834788 100.293217c0 16.409738 5.466502 31.003108 18.235316 41.946344 12.750395 10.934027 27.352975 16.409738 45.588291 16.409738s32.819476-5.475711 45.588291-16.409738c12.750395-10.943236 18.235316-25.536606 18.235316-41.946344l0-100.293217C792.771685 109.135606 785.470395 94.541213 772.70158 81.782631z" fill="#a9b7b7"></path></g></g></svg>