<?xml version="1.0" standalone="no"?><!DOCTYPE svg PUBLIC "-//W3C//DTD SVG 1.1//EN" "http://www.w3.org/Graphics/SVG/1.1/DTD/svg11.dtd"><svg width="200" height="200" viewBox="0 0 200 200" version="1.1" xmlns="http://www.w3.org/2000/svg" xmlns:xlink="http://www.w3.org/1999/xlink"><defs><style type="text/css"><![CDATA[
@font-face { font-family: ifont; src: url(http://at.alicdn.com/t/font_1442373896_4754455.eot?#iefix) format(embedded-opentype), url(http://at.alicdn.com/t/font_1442373896_4754455.woff) format(woff), url(http://at.alicdn.com/t/font_1442373896_4754455.ttf) format(truetype), url(http://at.alicdn.com/t/font_1442373896_4754455.svg#ifont) format(svg); }

]]></style></defs><g class="transform-group"><g transform="scale(0.1953125, 0.1953125)"><path d="M178.000532 547.882232 117.274472 547.882232l0 60.728106L117.274472 846.001003l0 60.727083 60.727083 0 237.387595 0 60.725036 0L476.114187 846.001003 476.114187 608.609315l0-60.728106-60.725036 0L178.000532 547.881209 178.000532 547.882232zM415.388127 846.001003 178.000532 846.001003 178.000532 608.609315l237.387595 0L415.388127 846.001003 415.388127 846.001003zM608.61085 547.882232l-60.727083 0 0 60.728106L547.883767 846.001003l0 60.727083 60.727083 0 237.386572 0 60.727083 0L906.724505 846.001003 906.724505 608.609315l0-60.728106-60.727083 0L608.61085 547.881209 608.61085 547.882232zM845.997422 846.001003l-237.386572 0L608.61085 608.609315l237.386572 0L845.997422 846.001003 845.997422 846.001003zM178.000532 117.271914 117.274472 117.271914l0 60.727083 0 237.386572 0 60.731176 60.727083 0 237.387595 0 60.725036 0 0-60.731176 0-237.386572L476.114187 117.271914l-60.725036 0L178.000532 117.271914 178.000532 117.271914zM415.388127 415.386592 178.000532 415.386592l0-237.386572 237.387595 0L415.388127 415.386592 415.388127 415.386592zM845.997422 117.271914l-237.386572 0-60.727083 0 0 60.727083 0 237.386572 0 60.731176 60.727083 0 237.386572 0 60.727083 0 0-60.731176 0-237.386572L906.724505 117.271914 845.997422 117.271914 845.997422 117.271914zM845.997422 415.386592l-237.386572 0 0-237.386572 237.386572 0L845.997422 415.386592 845.997422 415.386592zM845.997422 415.386592M178.000532 568.348356 117.274472 568.348356l0 60.728106L117.274472 866.467127l0 60.727083 60.727083 0 237.387595 0 60.725036 0L476.114187 866.467127 476.114187 629.075439l0-60.728106-60.725036 0L178.000532 568.347333 178.000532 568.348356zM415.388127 866.467127 178.000532 866.467127 178.000532 629.075439l237.387595 0L415.388127 866.467127 415.388127 866.467127zM608.61085 568.348356l-60.727083 0 0 60.728106L547.883767 866.467127l0 60.727083 60.727083 0 237.386572 0 60.727083 0L906.724505 866.467127 906.724505 629.075439l0-60.728106-60.727083 0L608.61085 568.347333 608.61085 568.348356zM845.997422 866.467127l-237.386572 0L608.61085 629.075439l237.386572 0L845.997422 866.467127 845.997422 866.467127zM178.000532 137.738038 117.274472 137.738038l0 60.727083 0 237.386572 0 60.731176 60.727083 0 237.387595 0 60.725036 0 0-60.731176 0-237.386572 0-60.727083-60.725036 0L178.000532 137.738038 178.000532 137.738038zM415.388127 435.852716 178.000532 435.852716l0-237.386572 237.387595 0L415.388127 435.852716 415.388127 435.852716zM845.997422 137.738038l-237.386572 0-60.727083 0 0 60.727083 0 237.386572 0 60.731176 60.727083 0 237.386572 0 60.727083 0 0-60.731176 0-237.386572 0-60.727083L845.997422 137.738038 845.997422 137.738038zM845.997422 435.852716l-237.386572 0 0-237.386572 237.386572 0L845.997422 435.852716 845.997422 435.852716zM845.997422 435.852716M198.466656 547.882232 137.740596 547.882232l0 60.728106L137.740596 846.001003l0 60.727083 60.727083 0 237.387595 0 60.725036 0L496.580311 846.001003 496.580311 608.609315l0-60.728106-60.725036 0L198.466656 547.881209 198.466656 547.882232zM435.854251 846.001003 198.466656 846.001003 198.466656 608.609315l237.387595 0L435.854251 846.001003 435.854251 846.001003zM629.076974 547.882232l-60.727083 0 0 60.728106L568.349891 846.001003l0 60.727083 60.727083 0 237.386572 0 60.727083 0L927.190629 846.001003 927.190629 608.609315l0-60.728106-60.727083 0L629.076974 547.881209 629.076974 547.882232zM866.463546 846.001003l-237.386572 0L629.076974 608.609315l237.386572 0L866.463546 846.001003 866.463546 846.001003zM198.466656 117.271914 137.740596 117.271914l0 60.727083 0 237.386572 0 60.731176 60.727083 0 237.387595 0 60.725036 0 0-60.731176 0-237.386572L496.580311 117.271914l-60.725036 0L198.466656 117.271914 198.466656 117.271914zM435.854251 415.386592 198.466656 415.386592l0-237.386572 237.387595 0L435.854251 415.386592 435.854251 415.386592zM866.463546 117.271914l-237.386572 0-60.727083 0 0 60.727083 0 237.386572 0 60.731176 60.727083 0 237.386572 0 60.727083 0 0-60.731176 0-237.386572L927.190629 117.271914 866.463546 117.271914 866.463546 117.271914zM866.463546 415.386592l-237.386572 0 0-237.386572 237.386572 0L866.463546 415.386592 866.463546 415.386592zM866.463546 415.386592M476.114187 476.117768l20.466124 0 0 20.466124-20.466124 0 0-20.466124ZM906.724505 476.117768l20.466124 0 0 20.466124-20.466124 0 0-20.466124ZM906.724505 906.727063l20.466124 0 0 20.466124-20.466124 0 0-20.466124ZM476.114187 906.727063l20.466124 0 0 20.466124-20.466124 0 0-20.466124Z" fill="#a9b7b7"></path></g></g></svg>