<?xml version="1.0" standalone="no"?><!DOCTYPE svg PUBLIC "-//W3C//DTD SVG 1.1//EN" "http://www.w3.org/Graphics/SVG/1.1/DTD/svg11.dtd"><svg width="200" height="200" viewBox="0 0 200 200" version="1.1" xmlns="http://www.w3.org/2000/svg" xmlns:xlink="http://www.w3.org/1999/xlink"><defs><style type="text/css"><![CDATA[
@font-face { font-family: ifont; src: url(http://at.alicdn.com/t/font_1442373896_4754455.eot?#iefix) format(embedded-opentype), url(http://at.alicdn.com/t/font_1442373896_4754455.woff) format(woff), url(http://at.alicdn.com/t/font_1442373896_4754455.ttf) format(truetype), url(http://at.alicdn.com/t/font_1442373896_4754455.svg#ifont) format(svg); }

]]></style></defs><g class="transform-group"><g transform="scale(0.1953125, 0.1953125)"><path d="M536.478476 438.857143 536.380952 438.954667 536.380952 438.857143 487.619048 438.857143 487.619048 438.954667 487.521524 438.857143 366.640762 559.737905 349.598476 576.75581 384.097524 611.230476 435.590095 559.737905 487.619048 507.733333 487.619048 559.737905 487.619048 1024 536.380952 1024 536.380952 559.737905 536.380952 507.733333 588.409905 559.737905 639.902476 611.230476 674.377143 576.75581 657.359238 559.737905ZM738.864762 195.193905C698.684952 81.554286 590.628571 0 463.238095 0 301.665524 0 170.666667 130.998857 170.666667 292.571429c0 10.849524 0.682667 21.504 1.828571 32.036571C73.264762 350.793143 0 440.880762 0 548.327619c0 127.926857 103.69219 231.619048 231.619048 231.619048L341.333333 779.946667 341.333333 752.152381 341.333333 731.428571l0-0.24381L242.297905 731.184762l0-0.487619c-3.559619 0.195048-7.070476 0.487619-10.678857 0.487619-100.985905 0-182.857143-81.846857-182.857143-182.857143 0-83.772952 56.393143-154.209524 133.241905-175.85981 15.457524-4.36419 31.719619-6.851048 48.566857-6.948571-4.85181-15.481905-8.216381-31.622095-9.874286-48.249905C219.867429 309.150476 219.428571 300.909714 219.428571 292.571429 219.428571 157.915429 328.606476 48.761905 463.238095 48.761905c101.229714 0 188.050286 61.732571 224.914286 149.601524 6.290286 14.994286 11.044571 30.768762 14.262857 47.104C711.92381 244.321524 721.603048 243.565714 731.428571 243.565714c6.777905 0 13.458286 0.487619 20.114286 1.024C876.763429 254.829714 975.238095 359.497143 975.238095 487.375238c0 130.340571-102.375619 236.495238-231.082667 243.175619l-63.512381 0L680.643048 731.428571l0 43.910095 0 4.608 68.047238 0 0-0.877714C902.192762 770.096762 1024 643.120762 1024 487.375238 1024 328.313905 896.950857 199.168 738.864762 195.193905z" fill="#a9b7b7"></path></g></g></svg>