<?xml version="1.0" standalone="no"?><!DOCTYPE svg PUBLIC "-//W3C//DTD SVG 1.1//EN" "http://www.w3.org/Graphics/SVG/1.1/DTD/svg11.dtd"><svg width="200" height="200" viewBox="0 0 200 200" version="1.1" xmlns="http://www.w3.org/2000/svg" xmlns:xlink="http://www.w3.org/1999/xlink"><defs><style type="text/css"><![CDATA[
@font-face { font-family: ifont; src: url(http://at.alicdn.com/t/font_1442373896_4754455.eot?#iefix) format(embedded-opentype), url(http://at.alicdn.com/t/font_1442373896_4754455.woff) format(woff), url(http://at.alicdn.com/t/font_1442373896_4754455.ttf) format(truetype), url(http://at.alicdn.com/t/font_1442373896_4754455.svg#ifont) format(svg); }

]]></style></defs><g class="transform-group"><g transform="scale(0.1953125, 0.1953125)"><path d="M298.868855 1023.065721c-78.556147 0.00307-122.665761-25.701358-145.834436-47.264467-25.888624-24.092721-32.388664-48.653093-32.650631-49.684586l-0.074701-0.285502-0.056282-0.288572c-0.160659-0.802272-3.877307-19.939121 1.460258-42.62889 4.206812-17.890462 14.801101-40.918945 40.892339-56.969503-17.23657-15.378246-28.312836-34.722826-34.767851-48.938596-12.036128 13.136182-31.826869 29.197996-56.612369 29.197996-8.414647 0-16.802688-1.873674-24.931832-5.568832-20.210297-9.190313-35.050284-38.442544-39.690978-78.256318-4.888334-41.909505 2.557242-89.272209 20.965497-133.364427 22.168905-53.107545 58.81657-100.356662 108.983133-140.538827-1.926886-8.601912-4.487198-23.697725-3.883447-41.442878 1.189082-34.999119 14.153348-64.510246 37.562501-85.671195 1.620917-18.806321 10.145058-87.98796 50.996464-158.018943 27.67327-47.440475 64.46829-85.260849 109.363803-112.417349 55.869449-33.792641 124.301004-50.924833 203.39848-50.924833 79.130222 0 147.663084 17.512862 203.696262 52.051493 44.989657 27.738761 81.931011 66.36243 109.785405 114.801652 42.277896 73.519434 50.395784 146.099473 51.751664 162.788573 43.473117 59.663868 30.976502 113.885793 25.050536 131.503033 100.508112 159.78517 97.526197 249.432932 77.111239 296.616558-16.287965 37.654598-45.307905 52.29504-58.376549 54.772464-2.625804 0.499373-5.334495 0.75213-8.046257 0.75213-18.845207 0-35.537378-11.866259-46.506197-22.210861-4.097318 9.717316-10.263761 21.747303-18.877953 32.299637 73.085552 39.902802 64.801888 87.627756 62.898539 95.335299-0.814552 4.90266-5.676279 27.378557-28.64848 49.266054-32.407084 30.881334-84.333734 46.542013-154.332994 46.542013-57.07081 0.00307-126.204353-10.695596-205.486024-31.797194l-27.063379-4.924149C433.029414 1007.836879 359.676779 1023.063675 298.868855 1023.065721zM136.623657 658.677641c19.960611 0 35.573193 22.249747 38.501896 26.706245l1.168616 1.783623 0.430812 2.087545c0.169869 0.817622 17.762549 82.954317 68.069305 114.13241 20.667715 12.809747 30.438243 26.646893 29.03836 41.12463-2.158153 22.318308-30.209022 33.56342-33.402761 34.770921l-1.831718 0.692778-1.959631 0.029676c-8.001231 0.145309-30.90794 2.940982-40.444131 13.963013-3.601015 4.16588-4.89959 9.104355-4.081968 15.545044 0.597611 4.727675 12.045337 16.005532 40.21491 26.15673 28.838815 10.394744 65.958224 16.353456 101.834316 16.353456 43.797505 0 106.820887-8.420787 158.352541-48.52518l3.696182-2.87856 68.042699 9.074679 1.070378 0.37146c60.725036 21.120017 117.566626 31.826869 168.94376 31.826869 79.668481 0 120.617102-25.543769 129.064494-33.423227-4.296863-7.511067-27.355021-24.532743-58.94346-37.749766-16.986883-7.111978-36.697807-17.522072-38.370913-35.023678-1.718131-17.935488 17.319457-30.611182 23.579021-34.773991 22.75526-15.145955 34.482349-43.922349 48.058552-77.245292 2.741437-6.723122 5.574972-13.677511 8.563026-20.661575 11.293207-26.397207 26.451442-31.939433 37.181831-31.939433 15.624862 0 28.898167 12.205996 32.231075 23.51353 1.454118 4.935406 9.431813 18.871813 17.60189 32.210609 3.25616-9.211802 6.193049-23.061228 5.529947-42.325991-1.316995-38.183647-17.319457-105.429191-86.067214-208.943776l-3.517103-5.29254 2.755764-5.729491c1.061169-2.245134 25.847691-56.265468-18.60473-100.740402l-3.074012-3.077082-0.184195-4.347005c-0.029676-0.708128-3.597945-72.243371-42.756803-142.486178C735.417419 120.771621 648.310525 73.572646 528.406668 73.572646c-88.585571 0-158.27477 25.223474-207.133547 74.970482-77.669964 79.08008-76.504418 194.85899-76.483952 196.022489l0.092098 5.28026-4.019547 3.434216c-65.354474 55.655578-25.074072 109.74345-23.326265 112.01826l7.54893 9.839089-10.538007 6.526647c-65.722864 40.324404-107.641579 95.251388-124.58446 163.261341-7.281847 29.222555-8.138354 54.474682-7.552 70.662363 7.801686-7.325849 17.486256-18.705014 25.594935-35.225269C116.806309 662.438291 128.422881 658.677641 136.623657 658.677641z" fill="#a9b7b7"></path></g></g></svg>