<?xml version="1.0" standalone="no"?><!DOCTYPE svg PUBLIC "-//W3C//DTD SVG 1.1//EN" "http://www.w3.org/Graphics/SVG/1.1/DTD/svg11.dtd"><svg width="200" height="200" viewBox="0 0 200 200" version="1.1" xmlns="http://www.w3.org/2000/svg" xmlns:xlink="http://www.w3.org/1999/xlink"><defs><style type="text/css"><![CDATA[
@font-face { font-family: ifont; src: url(http://at.alicdn.com/t/font_1442373896_4754455.eot?#iefix) format(embedded-opentype), url(http://at.alicdn.com/t/font_1442373896_4754455.woff) format(woff), url(http://at.alicdn.com/t/font_1442373896_4754455.ttf) format(truetype), url(http://at.alicdn.com/t/font_1442373896_4754455.svg#ifont) format(svg); }

]]></style></defs><g class="transform-group"><g transform="scale(0.1953125, 0.1953125)"><path d="M816.864 192l-304.96 46.72L206.912 192 160 192l0 578.128 20.176 0L488.432 864 496 864l32 0 7.36 0 0-5.76 308.256-88.096 20.176 0L863.792 192 816.864 192zM493.184 832 192 740.288 192 224l12.48 0L496 268.656 496 832 493.184 832zM831.776 740.224l-303.792 86.832L527.984 268.624 819.296 224l12.48 0L831.776 740.224z" fill="#a9b7b7"></path></g></g></svg>