<?xml version="1.0" standalone="no"?><!DOCTYPE svg PUBLIC "-//W3C//DTD SVG 1.1//EN" "http://www.w3.org/Graphics/SVG/1.1/DTD/svg11.dtd"><svg width="200" height="200" viewBox="0 0 200 200" version="1.1" xmlns="http://www.w3.org/2000/svg" xmlns:xlink="http://www.w3.org/1999/xlink"><defs><style type="text/css"><![CDATA[
@font-face { font-family: ifont; src: url(http://at.alicdn.com/t/font_1442373896_4754455.eot?#iefix) format(embedded-opentype), url(http://at.alicdn.com/t/font_1442373896_4754455.woff) format(woff), url(http://at.alicdn.com/t/font_1442373896_4754455.ttf) format(truetype), url(http://at.alicdn.com/t/font_1442373896_4754455.svg#ifont) format(svg); }

]]></style></defs><g class="transform-group"><g transform="scale(0.1953125, 0.1953125)"><path d="M532.273 339.682l40.545 0c0-110.276-80.051-201.844-185.21-219.796-1.849-1.968-4.468-3.204-7.38-3.204l-20.273 0c-0.619 0-1.222 0.064-1.81 0.17-2.764-0.102-5.537-0.17-8.326-0.17l0 521.195c-29.718-33.675-73.192-54.922-121.636-54.922C138.611 582.955 66 655.565 66 745.136s72.611 162.182 162.182 162.182 162.182-72.611 162.182-162.182c0-2.722-0.07-5.428-0.202-8.118 0.132-0.652 0.202-1.327 0.202-2.019L390.364 161.756C471.615 180.194 532.273 252.85 532.273 339.682zM228.182 866.773c-67.178 0-121.636-54.459-121.636-121.636S161.004 623.5 228.182 623.5s121.636 54.459 121.636 121.636S295.36 866.773 228.182 866.773zM947.864 258.591 664.045 258.591c-5.597 0-10.136 4.539-10.136 10.136L653.909 289c0 5.597 4.539 10.136 10.136 10.136l283.818 0c5.597 0 10.136-4.539 10.136-10.136l0-20.273C958 263.13 953.461 258.591 947.864 258.591zM947.864 582.955 481.591 582.955c-5.597 0-10.136 4.539-10.136 10.136l0 20.273c0 5.597 4.539 10.136 10.136 10.136l466.273 0c5.597 0 10.136-4.539 10.136-10.136l0-20.273C958 587.494 953.461 582.955 947.864 582.955zM947.864 420.773 664.045 420.773c-5.597 0-10.136 4.539-10.136 10.136l0 20.273c0 5.597 4.539 10.136 10.136 10.136l283.818 0c5.597 0 10.136-4.539 10.136-10.136l0-20.273C958 425.312 953.461 420.773 947.864 420.773zM947.864 745.136 481.591 745.136c-5.597 0-10.136 4.539-10.136 10.136l0 20.273c0 5.597 4.539 10.136 10.136 10.136l466.273 0c5.597 0 10.136-4.539 10.136-10.136l0-20.273C958 749.675 953.461 745.136 947.864 745.136z" fill="#a9b7b7"></path></g></g></svg>