<?xml version="1.0" standalone="no"?><!DOCTYPE svg PUBLIC "-//W3C//DTD SVG 1.1//EN" "http://www.w3.org/Graphics/SVG/1.1/DTD/svg11.dtd"><svg width="200" height="200" viewBox="0 0 200 200" version="1.1" xmlns="http://www.w3.org/2000/svg" xmlns:xlink="http://www.w3.org/1999/xlink"><defs><style type="text/css"><![CDATA[
@font-face { font-family: ifont; src: url(http://at.alicdn.com/t/font_1442373896_4754455.eot?#iefix) format(embedded-opentype), url(http://at.alicdn.com/t/font_1442373896_4754455.woff) format(woff), url(http://at.alicdn.com/t/font_1442373896_4754455.ttf) format(truetype), url(http://at.alicdn.com/t/font_1442373896_4754455.svg#ifont) format(svg); }

]]></style></defs><g class="transform-group"><g transform="scale(0.1953125, 0.1953125)"><path d="M454.659612 276.31746c-10.835979 6.320988-24.380952 1.805996-29.798942-9.029982-5.417989-10.835979-1.805996-24.380952 9.029982-29.798942 67.724868-37.022928 152.606702-31.604938 214.91358 15.35097 28.895944 21.671958 52.373898 51.470899 66.821869 84.881834 4.514991 0 9.029982-0.902998 13.544974-0.902998 84.881834 0 155.315697 70.433862 155.315697 155.315697l38.828924 0c20.768959 0 37.022928 16.253968 37.022928 37.022928l0 0.902998c0 170.666667-69.530864 249.227513-128.22575 314.243386-35.216931 38.828924-65.015873 73.142857-65.015873 120.098765 0 20.768959-16.253968 37.022928-37.022928 37.022928l-0.902998 0L299.343915 1001.425044c-20.768959 0-37.022928-16.253968-37.022928-37.022928 0-46.955908-29.798942-81.269841-65.015873-120.098765-58.694885-65.918871-128.22575-144.479718-128.22575-315.146384 0-20.768959 17.156966-37.022928 37.022928-37.022928l0.902998 0 45.149912 0c-16.253968-36.119929-18.962963-74.948854-9.029982-111.068783 7.223986-28.895944 23.477954-55.985891 46.05291-77.657848L67.273369 92.10582C57.340388 74.045855 63.661376 51.470899 80.818342 41.537919 98.878307 31.604938 121.453263 37.022928 131.386243 55.082892l121.904762 212.204586c29.798942-9.029982 61.40388-9.932981 90.299824-1.805996 40.634921 10.835979 76.75485 37.022928 99.329806 76.75485 13.544974 22.574956 25.283951 55.985891 31.604938 91.202822 3.611993 18.962963 6.320988 38.828924 7.223986 58.694885l357.587302 0c0-61.40388-49.664903-110.165785-111.068783-110.165785-3.611993 0-8.126984 0-11.738977 0-3.611993 0.902998-7.223986 0.902998-10.835979 1.805996-11.738977 3.611993-24.380952-2.708995-27.089947-14.447972-9.932981-32.507937-29.798942-61.40388-56.888889-81.269841C573.855379 252.839506 507.936508 248.324515 454.659612 276.31746L454.659612 276.31746zM884.486772 566.179894 884.486772 566.179894c-246.518519 0-493.037037 0-739.555556 0 9.029982 118.292769 62.306878 177.890653 108.359788 229.361552 37.022928 41.537919 69.530864 78.560847 80.366843 131.837743l363.005291 0c10.835979-53.276896 43.343915-90.299824 80.366843-131.837743C822.179894 744.070547 875.45679 684.472663 884.486772 566.179894L884.486772 566.179894zM324.627866 337.72134 324.627866 337.72134c-46.955908-12.641975-96.620811 15.35097-109.262787 63.209877-10.835979 38.828924 3.611993 64.112875 26.186949 92.10582l167.054674 0c-0.902998-14.447972-2.708995-29.798942-5.417989-44.246914-5.417989-27.992945-13.544974-52.373898-22.574956-68.627866C367.068783 357.587302 347.202822 344.042328 324.627866 337.72134L324.627866 337.72134z" fill="#a9b7b7"></path></g></g></svg>