<?xml version="1.0" standalone="no"?><!DOCTYPE svg PUBLIC "-//W3C//DTD SVG 1.1//EN" "http://www.w3.org/Graphics/SVG/1.1/DTD/svg11.dtd"><svg width="16" height="16" viewBox="0 0 16 16" version="1.1" xmlns="http://www.w3.org/2000/svg" xmlns:xlink="http://www.w3.org/1999/xlink"><defs><style type="text/css"><![CDATA[
@font-face { font-family: ifont; src: url(http://at.alicdn.com/t/font_1442373896_4754455.eot?#iefix) format(embedded-opentype), url(http://at.alicdn.com/t/font_1442373896_4754455.woff) format(woff), url(http://at.alicdn.com/t/font_1442373896_4754455.ttf) format(truetype), url(http://at.alicdn.com/t/font_1442373896_4754455.svg#ifont) format(svg); }

]]></style></defs><g class="transform-group"><g transform="scale(0.015625, 0.015625)"><path d="M744.40287 660.319338c-28.315881-12.407577-106.76349-33.440594-116.183015-69.130414-14.805181-56.392309 41.416236-99.388529 66.403305-143.782583 26.315319-46.825428 48.268288-110.194633 52.551844-163.167056 15.385395-190.107615-101.173173-301.336809-268.259488-282.088436C357.425639 16.128177 284.852826 106.721397 277.013284 223.381272c-7.965409 118.852819 36.121654 206.651392 82.969595 271.032645 20.486572 28.167502 41.99645 46.280006 38.72392 80.186204-3.874234 40.098219-46.74561 51.302389-77.424303 63.618891-36.382597 14.611777-75.515839 36.780663-94.025385 47.030089-63.698709 35.212959-133.635488 77.561426-149.350387 135.521439C43.090806 949.225034 160.648121 988.131102 257.662581 1006.083971c83.299099 15.361859 177.165872 16.555033 254.431563 16.555033 139.680152 0 390.919003-5.590317 431.426544-110.603955 11.521395-29.803767 6.567574-77.29946 0-96.809799C918.102807 739.483261 816.679947 692.077619 744.40287 660.319338z" fill="#a9b7b7"></path></g></g></svg>