<?xml version="1.0" standalone="no"?><!DOCTYPE svg PUBLIC "-//W3C//DTD SVG 1.1//EN" "http://www.w3.org/Graphics/SVG/1.1/DTD/svg11.dtd"><svg width="16" height="16" viewBox="0 0 16 16" version="1.1" xmlns="http://www.w3.org/2000/svg" xmlns:xlink="http://www.w3.org/1999/xlink"><defs><style type="text/css"><![CDATA[
@font-face { font-family: ifont; src: url(http://at.alicdn.com/t/font_1442373896_4754455.eot?#iefix) format(embedded-opentype), url(http://at.alicdn.com/t/font_1442373896_4754455.woff) format(woff), url(http://at.alicdn.com/t/font_1442373896_4754455.ttf) format(truetype), url(http://at.alicdn.com/t/font_1442373896_4754455.svg#ifont) format(svg); }

]]></style></defs><g class="transform-group"><g transform="scale(0.015625, 0.015625)"><path d="M0 512c0 282.88 229.12 512 512 512s512-229.12 512-512S794.88 0 512 0 0 229.12 0 512zM42.666667 512C42.666667 252.8 252.8 42.666667 512 42.666667s469.333333 210.133333 469.333333 469.333333c0 105.6-34.986667 203.306667-93.866667 281.6-29.866667-138.666667-134.613333-249.6-269.866667-288.213333C682.026667 468.693333 725.333333 399.36 725.333333 320c0-117.76-95.573333-213.333333-213.333333-213.333333S298.666667 202.24 298.666667 320c0 79.36 43.306667 148.693333 107.733333 185.386667C271.146667 544 166.4 654.933333 136.533333 793.6 77.653333 715.306667 42.666667 617.6 42.666667 512zM855.253333 832c-85.546667 91.946667-207.786667 149.333333-343.253333 149.333333s-257.706667-57.386667-343.253333-149.333333l4.48 0C194.346667 663.68 337.92 533.333333 512 533.333333s317.653333 130.346667 338.773333 298.666667L855.253333 832zM341.333333 320c0-94.293333 76.373333-170.666667 170.666667-170.666667s170.666667 76.373333 170.666667 170.666667-76.373333 170.666667-170.666667 170.666667S341.333333 414.293333 341.333333 320z" fill="#ecf0f1"></path></g></g></svg>