<?xml version="1.0" standalone="no"?><!DOCTYPE svg PUBLIC "-//W3C//DTD SVG 1.1//EN" "http://www.w3.org/Graphics/SVG/1.1/DTD/svg11.dtd"><svg width="16" height="16" viewBox="0 0 16 16" version="1.1" xmlns="http://www.w3.org/2000/svg" xmlns:xlink="http://www.w3.org/1999/xlink"><defs><style type="text/css"><![CDATA[
@font-face { font-family: ifont; src: url(http://at.alicdn.com/t/font_1442373896_4754455.eot?#iefix) format(embedded-opentype), url(http://at.alicdn.com/t/font_1442373896_4754455.woff) format(woff), url(http://at.alicdn.com/t/font_1442373896_4754455.ttf) format(truetype), url(http://at.alicdn.com/t/font_1442373896_4754455.svg#ifont) format(svg); }

]]></style></defs><g class="transform-group"><g transform="scale(0.015625, 0.015625)"><path d="M528.671193 89.161692l186.497555 152.72845 0.127913-77.003791 133.285632 0.127913 0.340761 183.982268 110.432135 116.997668-29.67588 31.722492L781.640672 336.716858l25.241894-10.915607 0.959861-119.919207-51.741431 0.064468-0.38374 107.575064-38.885636-15.036461L527.411503 144.676054l-405.121807 353.040638-26.605961-31.722492L528.671193 89.161692zM204.666868 901.410987l226.662323 0 0.340761-230.755548 190.334953-0.340761 0.682545 231.096309 226.15067 0L848.83812 545.532721l-40.932248 0 0 315.456648-144.797827 0 0-232.290507-272.711102 0.511653 0 231.778854-144.797827 0L245.599116 545.532721l-40.932248 0L204.666868 901.410987 204.666868 901.410987z" fill="#ecf0f1"></path></g></g></svg>