<?xml version="1.0" standalone="no"?><!DOCTYPE svg PUBLIC "-//W3C//DTD SVG 1.1//EN" "http://www.w3.org/Graphics/SVG/1.1/DTD/svg11.dtd"><svg width="16" height="16" viewBox="0 0 16 16" version="1.1" xmlns="http://www.w3.org/2000/svg" xmlns:xlink="http://www.w3.org/1999/xlink"><defs><style type="text/css"><![CDATA[
@font-face { font-family: ifont; src: url(http://at.alicdn.com/t/font_1442373896_4754455.eot?#iefix) format(embedded-opentype), url(http://at.alicdn.com/t/font_1442373896_4754455.woff) format(woff), url(http://at.alicdn.com/t/font_1442373896_4754455.ttf) format(truetype), url(http://at.alicdn.com/t/font_1442373896_4754455.svg#ifont) format(svg); }

]]></style></defs><g class="transform-group"><g transform="scale(0.015625, 0.015625)"><path d="M890.140444 1024 127.146667 1024C56.917333 1024 0 967.025778 0 896.739556L0 133.262222C0 62.976 57.770667 0 128 0L640 0 640 56.888889 128 56.888889C92.871111 56.888889 56.462222 98.133333 56.462222 133.262222L56.462222 896.739556C56.462222 931.896889 92.046222 967.480889 127.146667 967.480889L890.140444 967.480889C925.269333 967.480889 967.111111 931.128889 967.111111 896L967.111111 384 1024 384 1024 896C1024 966.286222 960.369778 1024 890.140444 1024ZM478.122667 747.662222C468.821333 756.963556 457.187556 761.628444 445.184 763.960889L166.798222 901.660444C135.452444 916.224 110.364444 888.120889 121.912889 856.746667L259.527111 578.190222C261.859556 566.158222 266.524444 554.524444 275.797333 545.223111L770.360889 50.346667C795.192889 25.486222 835.441778 25.486222 860.273778 50.346667L972.686222 162.816C997.489778 187.648 997.489778 227.953778 972.686222 252.785778L478.122667 747.662222ZM182.812444 818.289778C175.530667 832.938667 189.582222 848.014222 205.255111 840.732444L377.144889 736.597333 286.862222 646.257778 182.812444 818.289778ZM320.768 590.222222 679.651556 231.111111 792.832 342.784 433.152 702.691556C391.025778 660.508444 332.714667 602.168889 320.768 590.222222ZM905.244444 185.315556 837.802667 117.816889C825.372444 105.415111 805.262222 105.415111 792.832 117.816889L727.011556 183.694222 837.802667 297.784889 905.244444 230.286222C917.646222 217.884444 917.646222 197.745778 905.244444 185.315556Z" fill="#9d55b8"></path></g></g></svg>