<?xml version="1.0" standalone="no"?><!DOCTYPE svg PUBLIC "-//W3C//DTD SVG 1.1//EN" "http://www.w3.org/Graphics/SVG/1.1/DTD/svg11.dtd"><svg width="16" height="16" viewBox="0 0 16 16" version="1.1" xmlns="http://www.w3.org/2000/svg" xmlns:xlink="http://www.w3.org/1999/xlink"><defs><style type="text/css"><![CDATA[
@font-face { font-family: ifont; src: url(http://at.alicdn.com/t/font_1442373896_4754455.eot?#iefix) format(embedded-opentype), url(http://at.alicdn.com/t/font_1442373896_4754455.woff) format(woff), url(http://at.alicdn.com/t/font_1442373896_4754455.ttf) format(truetype), url(http://at.alicdn.com/t/font_1442373896_4754455.svg#ifont) format(svg); }

]]></style></defs><g class="transform-group"><g transform="scale(0.015625, 0.015625)"><path d="M343.969029 896.764154l-229.220588-0.454348-1.671059-0.081864c-26.369577-2.647293-50.765197-14.938224-68.673056-34.601052-18.039865-19.825534-27.975145-45.51052-27.975145-72.317049L16.429181 212.808804c0-59.247382 48.197722-107.445104 107.453291-107.445104l757.027599 0c59.247382 0 107.436918 48.197722 107.436918 107.445104l0 246.835781c-0.098237 3.182482-1.785669 59.068304 17.308201 95.972818 2.094708 4.043083 2.483564 8.638751 1.104147 12.973476-1.38044 4.335748-4.367471 7.875365-8.40953 9.969049-2.435469 1.266853-5.066389 1.90028-7.794523 1.90028-6.39771 0-12.193717-3.523243-15.131629-9.205663-22.878057-44.211944-21.367657-105.098663-21.10876-111.89444L954.314895 212.808804c0-40.4779-32.926924-73.41301-73.404824-73.41301L123.882472 139.395794c-40.4779 0-73.415057 32.93511-73.415057 73.41301l0 576.50206c0 37.392632 27.959795 68.74571 65.037249 72.934103l228.496088 0.470721 536.910343 0c40.4779 0 73.404824-32.926924 73.404824-73.404824l-0.406253-102.550631c-0.258896-3.880377-2.50096-23.493064-22.11467-48.546669l-23.90034-31.352055-128.301108-169.776731c-0.388856-0.520863-39.599903-51.593052-89.366354-51.593052-2.661619 0-5.357008 0.146333-8.085142 0.455371-43.188638 4.861728-85.290525 50.242288-121.741715 131.23902-19.125593 42.508139-37.603433 74.15286-56.511062 96.690156-18.801205 22.405289-38.008662 35.767622-58.718333 40.850383-6.27696 1.543146-12.68081 2.320858-19.045775 2.320858-38.245046 0-73.291237-27.601638-110.393249-56.811914l-5.567809-4.38282c-20.847817-16.383132-35.656081-23.072485-51.114145-23.072485-30.833239 0-65.375963 28.558429-126.563534 88.552825-3.196809 3.134387-7.427156 4.854565-11.909238 4.854565-4.611018 0-8.93858-1.817392-12.169157-5.097088-6.567579-6.705726-6.453992-17.502629 0.25071-24.078395 50.747801-49.765427 84.284615-79.089289 116.092042-91.51018 11.624758-4.561899 22.673395-6.770194 33.787524-6.770194 23.227004 0 46.313815 9.644661 72.658833 30.346145l5.575995 4.383844c33.691333 26.530236 62.770626 49.440016 89.748047 49.440016 3.604084 0 7.15291-0.422625 10.546194-1.25048 29.079292-7.127328 60.123332-46.972824 92.288916-118.42825 42.329061-94.051049 92.53144-144.904251 149.245116-151.139256 3.978614-0.436952 7.890714-0.64059 11.739369-0.64059 67.23531 0 114.483404 62.526055 116.465548 65.181535l128.219243 169.646771 23.639396 31.04404c28.137851 36.012192 29.227672 65.594951 29.258371 68.859297l0.422625 103.069447c0 59.279105-48.189535 107.518782-107.436918 107.518782L343.969029 896.763131zM288.950971 265.845741c-46.324048 0-84.015486 37.691437-84.015486 84.015486 0 46.330188 37.691437 84.023672 84.015486 84.023672 46.322002 0 84.015486-37.693484 84.015486-84.023672C372.966457 303.537178 335.272973 265.845741 288.950971 265.845741zM288.950971 398.033365c-26.572192 0-48.174186-21.601994-48.174186-48.172139 0-26.564006 21.601994-48.174186 48.174186-48.174186 26.561959 0 48.181349 21.611204 48.181349 48.174186C337.13232 376.431372 315.51293 398.033365 288.950971 398.033365z" fill="#f4c600"></path></g></g></svg>