<?xml version="1.0" standalone="no"?><!DOCTYPE svg PUBLIC "-//W3C//DTD SVG 1.1//EN" "http://www.w3.org/Graphics/SVG/1.1/DTD/svg11.dtd"><svg width="16" height="16" viewBox="0 0 16 16" version="1.1" xmlns="http://www.w3.org/2000/svg" xmlns:xlink="http://www.w3.org/1999/xlink"><defs><style type="text/css"><![CDATA[
@font-face { font-family: ifont; src: url(http://at.alicdn.com/t/font_1442373896_4754455.eot?#iefix) format(embedded-opentype), url(http://at.alicdn.com/t/font_1442373896_4754455.woff) format(woff), url(http://at.alicdn.com/t/font_1442373896_4754455.ttf) format(truetype), url(http://at.alicdn.com/t/font_1442373896_4754455.svg#ifont) format(svg); }

]]></style></defs><g class="transform-group"><g transform="scale(0.015625, 0.015625)"><path d="M512 0C228.430769 0 0 228.430769 0 512s228.430769 512 512 512 512-228.430769 512-512S795.569231 0 512 0zM512 949.169231c-244.184615 0-437.169231-196.923077-437.169231-437.169231S267.815385 74.830769 512 74.830769s437.169231 196.923077 437.169231 437.169231S756.184615 949.169231 512 949.169231zM866.461538 409.6c-3.938462 11.815385-7.876923 23.630769-11.815385 31.507692-3.938462 7.876923-11.815385 11.815385-15.753846 11.815385-3.938462 0-7.876923-3.938462-11.815385-7.876923-3.938462-3.938462-3.938462-15.753846-7.876923-27.569231-3.938462-23.630769-11.815385-39.384615-23.630769-47.261538-11.815385-11.815385-31.507692-19.692308-55.138462-23.630769-27.569231-3.938462-51.2-15.753846-70.892308-31.507692-19.692308-15.753846-35.446154-31.507692-51.2-43.323077-11.815385-11.815385-23.630769-15.753846-31.507692-11.815385-7.876923 3.938462-11.815385 7.876923-11.815385 19.692308L575.015385 393.846154c0 31.507692 0 66.953846 0 102.4 0 35.446154 0 70.892308 0 102.4l0 133.907692c0 11.815385 0 27.569231-7.876923 43.323077-3.938462 15.753846-15.753846 31.507692-27.569231 47.261538-11.815385 15.753846-31.507692 27.569231-55.138462 35.446154-23.630769 11.815385-51.2 15.753846-86.646154 19.692308-35.446154 0-66.953846-3.938462-94.523077-15.753846-27.569231-11.815385-47.261538-31.507692-63.015385-51.2-15.753846-19.692308-23.630769-43.323077-23.630769-66.953846 0-23.630769 11.815385-47.261538 31.507692-66.953846 19.692308-19.692308 43.323077-35.446154 70.892308-43.323077 23.630769-7.876923 47.261538-11.815385 70.892308-15.753846 23.630769 0 43.323077 0 63.015385 3.938462 19.692308 3.938462 31.507692 7.876923 39.384615 11.815385l0-236.307692c0-66.953846 0-141.784615 0-224.492308 0-15.753846 3.938462-27.569231 11.815385-39.384615 7.876923-11.815385 19.692308-15.753846 35.446154-19.692308 11.815385 0 23.630769 0 31.507692 7.876923 7.876923 7.876923 15.753846 15.753846 23.630769 27.569231 7.876923 11.815385 19.692308 23.630769 31.507692 39.384615 11.815385 15.753846 27.569231 27.569231 47.261538 43.323077 15.753846 11.815385 31.507692 23.630769 47.261538 27.569231 11.815385 3.938462 23.630769 11.815385 35.446154 15.753846 11.815385 3.938462 23.630769 11.815385 35.446154 15.753846 11.815385 7.876923 23.630769 15.753846 35.446154 31.507692 11.815385 15.753846 19.692308 31.507692 23.630769 47.261538C866.461538 382.030769 866.461538 397.784615 866.461538 409.6z" fill="#11cd6e"></path></g></g></svg>