<?xml version="1.0" standalone="no"?><!DOCTYPE svg PUBLIC "-//W3C//DTD SVG 1.1//EN" "http://www.w3.org/Graphics/SVG/1.1/DTD/svg11.dtd"><svg width="16" height="16" viewBox="0 0 16 16" version="1.1" xmlns="http://www.w3.org/2000/svg" xmlns:xlink="http://www.w3.org/1999/xlink"><defs><style type="text/css"><![CDATA[
@font-face { font-family: ifont; src: url(http://at.alicdn.com/t/font_1442373896_4754455.eot?#iefix) format(embedded-opentype), url(http://at.alicdn.com/t/font_1442373896_4754455.woff) format(woff), url(http://at.alicdn.com/t/font_1442373896_4754455.ttf) format(truetype), url(http://at.alicdn.com/t/font_1442373896_4754455.svg#ifont) format(svg); }

]]></style></defs><g class="transform-group"><g transform="scale(0.015625, 0.015625)"><path d="M562.126654 758.312872c51.039443 99.473549 280.742009 124.349099 280.742009 124.349099-51.039443-24.87555-76.558653-124.349099-76.558653-124.349099L562.126654 758.312872zM127.322827 211.178677l0 497.383094c0 41.198308 35.18229 75.17412 77.463256 75.17412l612.56337 0c42.295292 0 77.476559-33.975812 77.476559-75.17412L894.826012 211.178677c0-41.185005-35.181267-71.596641-77.476559-71.596641L204.78506 139.582035C162.504094 139.582035 127.322827 169.994696 127.322827 211.178677zM664.204517 459.863572c0-27.465538 22.847357-49.736774 51.052746-49.736774s51.052746 22.271236 51.052746 49.736774c0 27.479865-22.86066 49.764404-51.052746 49.764404S664.204517 487.343437 664.204517 459.863572zM460.007859 459.863572c0-27.465538 22.847357-49.736774 51.066049-49.736774 28.205389 0 51.052746 22.271236 51.052746 49.736774 0 27.479865-22.86066 49.764404-51.052746 49.764404C482.854193 509.627976 460.007859 487.343437 460.007859 459.863572zM255.852132 459.863572c0-27.465538 22.833031-49.736774 51.052746-49.736774 28.192086 0 51.052746 22.271236 51.052746 49.736774 0 27.479865-22.86066 49.764404-51.052746 49.764404C278.685163 509.627976 255.852132 487.343437 255.852132 459.863572z" fill="#00bb9c"></path></g></g></svg>