<?xml version="1.0" standalone="no"?><!DOCTYPE svg PUBLIC "-//W3C//DTD SVG 1.1//EN" "http://www.w3.org/Graphics/SVG/1.1/DTD/svg11.dtd"><svg width="16" height="16" viewBox="0 0 16 16" version="1.1" xmlns="http://www.w3.org/2000/svg" xmlns:xlink="http://www.w3.org/1999/xlink"><defs><style type="text/css"><![CDATA[
@font-face { font-family: ifont; src: url(http://at.alicdn.com/t/font_1442373896_4754455.eot?#iefix) format(embedded-opentype), url(http://at.alicdn.com/t/font_1442373896_4754455.woff) format(woff), url(http://at.alicdn.com/t/font_1442373896_4754455.ttf) format(truetype), url(http://at.alicdn.com/t/font_1442373896_4754455.svg#ifont) format(svg); }

]]></style></defs><g class="transform-group"><g transform="scale(0.015625, 0.015625)"><path d="M301.9715 282.6199c6.9519 3.9229 6.3232 5.4712-1.3957 3.4406l-55.6268-14.6278c-7.7199-2.0296-17.408 1.9026-21.5286 8.7388l-29.182 48.4127c-4.1206 6.8362-5.7508 6.1358-3.6219-1.5575l15.0958-54.5505c2.1289-7.6933-1.7807-17.2595-8.6897-21.2593l-49.7838-28.8225c-6.9089-3.9997-6.2116-5.7395 1.5483-3.8687l54.9499 13.2547c7.7599 1.8719 17.577-2.1309 21.8163-8.8945l29.2864-46.7261c4.2394-6.7635 5.8849-6.0262 3.6577 1.6394l-15.9939 55.0431c-2.2272 7.6657 1.6384 17.1469 8.5903 21.0688L301.9715 282.6199zM753.3373 844.3935c1.5421 6.1972 0.2693 6.698-2.8273 1.1131l-9.9512-17.9456c-3.0956-5.5849-10.7274-9.0051-16.9574-7.6022l-20.4524 4.61c-6.23 1.4029-6.7133 0.1014-1.0732-2.8938l18.5651-9.8601c5.6402-2.9952 9.0501-10.5298 7.5766-16.7444l-4.7319-19.9762c-1.4725-6.2136-0.0492-6.782 3.1642-1.2626l10.0731 17.3056c3.2133 5.5194 10.9568 8.9733 17.2104 7.6759l19.8226-4.1144c6.2525-1.2974 6.7236 0.0328 1.0465 2.9583l-19.0126 9.7925c-5.6771 2.9245-9.0614 10.3875-7.5192 16.5837L753.3373 844.3935zM886.614 429.5219c-3.0372-10.1407-13.6172-28.6894-23.511-41.2191l-74.1274-93.8711c-9.8939-12.5297-26.2728-28.503-36.3981-35.497-10.1243-6.9939-51.9127-12.716-67.8779-12.716H442.119168c-15.9652 0-39.5459 2.5098-52.4022 5.5777s-43.5794 29.1236-53.975 41.2396l-82.9409 96.6636c-10.3956 12.116-21.6248 30.166-24.9539 40.1111s13.2014 42.2748 23.042 54.8454l258.8232 330.6148c9.8406 12.5706 26.754 32.4526 37.5828 44.1825 0 0 3.6516 3.9547 9.8171 3.9547s10.6076-4.479 10.6076-4.479c11.2435-11.3336 28.4662-30.9146 38.271-43.5139l257.2667-330.5605C873.0644 472.2555 889.6502 439.6626 886.614 429.5219zM787.5072 395.4319c9.8939 12.5297 4.9275 22.7809-11.0377 22.7809h-93.106176c-15.9652 0-27.6593-1.3885-25.9871-3.0874s12.201-18.9379 20.1882-32.7598l26.9384-46.6145c7.9872-13.823 15.5924-24.2084 16.898-23.0789 1.3056 1.1295 12.2092 14.507 22.103 27.0367L787.5072 395.4319zM638.0739 391.0625c-5.461-3.8574-16.0891-18.5324-23.6165-32.6113l-18.985-35.5123c-7.5274-14.079-13.7185-25.6635-13.7595-25.7444-0.0399-0.0799 12.9137-0.2918 28.8788-0.2918h40.807424c15.9652 0 32.5315 0.4239 36.8148 0.9411 4.2834 0.5181 8.8474 15.3405 0.8591 29.1625l-18.7013 32.3574C662.3846 373.1876 643.5348 394.9199 638.0739 391.0625zM436.8978 297.6092c3.7489-0.3881 19.8789-0.7055 35.8431-0.7055h43.48108800000001c15.9652 0 28.9997 0.0492 28.9679 0.1096-0.0317 0.0614-6.658 11.5313-14.6463 25.3542l-21.0934 36.5005c-7.9872 13.823-19.0495 28.1129-24.5821 31.7553-5.5316 3.6434-23.5377-18.5856-31.0641-32.6646l-16.9298-31.6672C429.3489 312.2115 433.1489 297.9963 436.8978 297.6092zM499.4417 411.5487c1.5329-2.2282 9.3225-15.361 17.3097-29.184l31.7164-54.8823c7.9872-13.823 20.6817-13.6131 28.2092 0.4659l28.4621 53.2367c7.5274 14.079 14.9473 27.5507 16.4884 29.9377s-7.0328 7.0881-22.998 7.0881h-76.07603200000001C506.5871 418.2118 497.9087 413.7769 499.4417 411.5487zM378.7899 338.4504c10.3956-12.116 20.0192-23.1383 21.3852-24.4951 1.366-1.3568 11.8651 6.8362 19.3925 20.9142l24.7644 46.3165c7.5274 14.079 14.9473 27.5507 16.4884 29.9366s-7.0328 7.0881-22.998 7.0881h-98.445312c-15.9652 0-20.521-9.9133-10.1253-22.0293L378.7899 338.4504zM648.8289 676.6879c-9.8048 12.5993-14.1752 10.366-9.7096-4.9613l34.4443-118.2423c4.4646-15.3272 1.0588-29.8619-7.5694-32.298s-19.3403 8.1111-23.806 23.4383L585.086 740.6377c-4.4657 15.3272-15.2402 34.3316-23.9442 42.2318 0 0 0 0-4.0294 0-3.4908 0-3.4908 0-3.4908 0-7.9012-6.2228-18.0193-23.8551-22.484-39.1823l-57.986-199.0615c-4.4646-15.3272-15.1777-25.8744-23.807-23.4383-8.6292 2.4361-12.0361 16.9708-7.5704 32.298l35.7263 122.6424c4.4657 15.3272 0.1239 17.5391-9.6481 4.9142L319.6754 489.602c-9.772-12.6249-19.159-25.5672-20.8609-28.7601-1.7019-3.1939-3.0587-12.4221-2.7904-12.417 0.2693 0.0051 14.0462 0.0102 30.0114 0.0102h462.1568c15.9652 0 29.2454-0.001 29.5117-0.0031 0.2662-0.002 0.4147 2.9696-0.258 6.6171-0.6728 3.6485-13.2588 22.0242-23.0636 34.6235L648.8289 676.6879z" fill="#f4c600"></path></g></g></svg>